<svg width="244" height="256" viewBox="0 0 244 256" fill="none" xmlns="http://www.w3.org/2000/svg">
<g clip-path="url(#clip0_57_1026)">
<path d="M226.471 21.6712H34.0027C26.9423 21.6712 21.201 26.6546 21.201 32.7831V147.268C21.201 153.396 26.9423 158.38 34.0027 158.38H226.471C233.531 158.38 239.272 153.396 239.272 147.268V32.7831C239.272 26.6546 233.531 21.6712 226.471 21.6712Z" fill="#F2F2F2"/>
<path d="M205.59 30.4895H13.1215C6.06116 30.4895 0.319946 35.4729 0.319946 41.6014V156.086C0.319946 162.215 6.06116 167.198 13.1215 167.198H205.59C212.65 167.198 218.391 162.215 218.391 156.086V41.6014C218.391 35.4729 212.65 30.4895 205.59 30.4895ZM217.045 122.39C217.045 146.491 194.536 166.03 166.77 166.03H13.1215C6.79486 166.03 1.66606 161.578 1.66606 156.086V41.6014C1.66606 36.1098 6.79484 31.658 13.1215 31.658H205.59C211.916 31.658 217.045 36.1098 217.045 41.6015V122.39Z" fill="#3F3D56"/>
<path d="M27.8118 142.388L26.6727 141.765C27.4132 140.744 28.1773 139.753 28.943 138.822L30.0387 139.501C29.2877 140.414 28.5388 141.385 27.8118 142.388Z" fill="#CCCCCC"/>
<path d="M35.2342 134.061L34.2706 133.245C36.3246 131.418 38.4865 129.849 40.6956 128.583L41.4377 129.558C39.3084 130.778 37.2212 132.293 35.2342 134.061ZM68.8168 126.685C67.2095 126.685 65.745 126.507 64.6487 126.351L64.8662 125.198C65.977 125.356 67.3149 125.517 68.8168 125.517C70.1432 125.517 71.447 125.391 72.8023 125.13L73.0928 126.271C71.6409 126.55 70.2422 126.685 68.8168 126.685ZM48.6747 126.531L48.2698 125.417C49.7158 125.021 51.2138 124.724 52.7219 124.534C54.0171 124.372 55.2554 124.293 56.5072 124.293H56.59V125.461H56.5072C55.3205 125.461 54.1456 125.536 52.9148 125.691C51.4783 125.871 50.0514 126.154 48.6747 126.531ZM80.7604 123.154L79.9 122.255C81.7575 120.916 83.0888 119.297 84.4987 117.582L85.061 116.9L86.1534 117.583L85.5944 118.261C84.1326 120.039 82.7516 121.718 80.7604 123.154ZM91.5556 112.441L90.7274 111.519C92.5419 110.29 94.5919 109.294 96.9943 108.475C97.4035 108.335 97.7946 108.21 98.1699 108.099L98.6043 109.205C98.2474 109.311 97.8761 109.429 97.4869 109.562C95.2065 110.34 93.2665 111.282 91.5556 112.441ZM107.807 108.382C107.354 108.382 106.924 108.378 106.511 108.374L106.527 107.206C106.949 107.21 107.39 107.211 107.856 107.214C109.44 107.214 111.646 107.175 114.672 106.871L114.827 108.031C111.701 108.345 109.46 108.378 107.807 108.382ZM123.016 106.852L122.749 105.707C125.167 105.282 127.979 104.777 130.764 104.154L131.1 105.285C128.284 105.916 125.45 106.425 123.016 106.852ZM139.03 103.07L138.526 101.986C141.225 101.042 143.569 99.9765 145.691 98.7293L146.446 99.697C144.244 100.991 141.818 102.094 139.03 103.07ZM152.63 94.7208L151.538 94.0379C151.914 93.5854 152.238 93.1441 152.552 92.7174C153.479 91.4576 154.438 90.1548 156.72 88.5556L156.88 88.4447L157.714 89.3615L157.566 89.4645C155.454 90.9444 154.596 92.1112 153.687 93.3464C153.363 93.7865 153.028 94.2418 152.63 94.7208ZM164.706 85.9574L164.215 84.8694C166.615 84.053 169.324 83.396 172.269 82.9165L172.518 84.065C169.655 84.5311 167.027 85.1678 164.706 85.9574Z" fill="#CCCCCC"/>
<path d="M180.746 83.2069L180.661 82.0407C181.969 81.9697 183.337 81.9229 184.726 81.9012L184.75 83.0697C183.381 83.0908 182.033 83.137 180.746 83.2069Z" fill="#CCCCCC"/>
<path d="M42.8224 43.1503H23.9363C22.9873 43.1503 22.2133 43.8222 22.2133 44.6459C22.2133 45.4755 22.9873 46.1474 23.9363 46.1474H42.8224C43.7714 46.1474 44.5454 45.4755 44.5454 44.6459C44.5454 43.8222 43.7714 43.1503 42.8224 43.1503Z" fill="#E6E6E6"/>
<path d="M74.4562 43.1503H55.5701C54.6211 43.1503 53.847 43.8222 53.847 44.6459C53.847 45.4755 54.6211 46.1474 55.5701 46.1474H74.4562C75.4052 46.1474 76.1792 45.4755 76.1792 44.6459C76.1792 43.8222 75.4052 43.1503 74.4562 43.1503Z" fill="#E6E6E6"/>
<path d="M106.09 43.1503H87.2039C86.2549 43.1503 85.4808 43.8222 85.4808 44.6459C85.4808 45.4755 86.2549 46.1474 87.2039 46.1474H106.09C107.039 46.1474 107.813 45.4755 107.813 44.6459C107.813 43.8222 107.039 43.1503 106.09 43.1503Z" fill="#E6E6E6"/>
<path d="M193.824 141.492H22.1943V142.661H193.824V141.492Z" fill="#E6E6E6"/>
<path d="M184.758 56.1954C172.542 56.4699 163.429 59.5897 157.654 65.4553C155.521 67.6286 154.652 69.3404 153.737 71.1515C152.828 72.9392 151.9 74.7795 149.739 77.1807V75.1943C151.079 73.4884 151.799 72.0629 152.505 70.6783C153.461 68.7854 154.37 66.9977 156.631 64.7017C162.662 58.5673 172.112 55.3132 184.718 55.0269L184.758 56.1954Z" fill="#CCCCCC"/>
<path d="M153.737 71.1515C152.828 72.9392 151.9 74.7795 149.739 77.1807C149.483 77.4669 149.207 77.7649 148.911 78.0746C141.117 86.1193 130.705 88.76 122.332 90.8866C121.807 91.0209 121.296 91.1436 120.798 91.2605C113.353 93.0131 109.275 92.9489 106.239 92.908C103.19 92.8613 101.178 92.832 97.577 94.6197C90.9742 97.8856 88.2685 102.665 85.6504 107.286C82.9514 112.041 80.4072 116.534 73.9189 118.643C69.4161 120.104 66.2528 119.379 62.9077 118.62C60.0337 117.96 54.854 101.71 50.2676 99.3403C40.7977 101.064 35.043 127.926 27.8615 142.31L26.623 141.843C33.9931 127.097 40.064 100.006 49.9849 98.1952C54.4069 97.389 60.2289 116.797 63.2509 117.486C66.3874 118.205 69.3421 118.877 73.4478 117.545C79.438 115.605 81.7533 111.51 84.4388 106.772C87.0234 102.215 89.9512 97.0501 96.9039 93.6032C100.828 91.6578 103.109 91.6928 106.259 91.7395C109.261 91.7863 113.313 91.8447 120.797 90.0512C121.174 89.9577 121.558 89.8642 121.955 89.7649C130.153 87.685 140.35 85.0969 147.875 77.3267C148.615 76.5614 149.228 75.8545 149.739 75.1943C151.078 73.4884 151.799 72.0629 152.505 70.6783C153.461 68.7854 154.652 69.3404 153.737 71.1515Z" fill="#536DFE"/>
<path d="M81.9623 204.81C81.4295 203.2 80.5172 201.826 79.4309 200.847L75.4843 185.23L66.8818 187.06L71.8115 202.704C71.4873 204.027 71.5522 205.608 72.0849 207.218C73.3021 210.897 76.4999 213.34 79.2275 212.675C81.9551 212.011 83.1795 208.489 81.9623 204.81Z" fill="#FFB6B6"/>
<path d="M80.7723 102.372C80.7723 102.372 67.187 102.13 63.7326 110.718C60.5884 118.534 56.8611 140.008 58.8761 141.249L67.4526 194.113L79.6827 192.654L76.5439 129.226L80.7723 102.372Z" fill="#536DFE"/>
<path d="M143.682 200.499L141.272 256H109.302L108.009 231.13L102.329 256H68.0634L72.3373 213.246L76.7525 204.255L79.7409 198.162L143.682 200.499Z" fill="#2F2E41"/>
<path d="M118.105 91.833L95.8944 90.6646L88.4907 98.8437L72.3373 104.102L79.7409 166.614L76.3756 204.004C76.3756 204.004 123.49 236.721 143.682 200.499L138.297 156.682L139.643 105.854L124.163 100.012L118.105 91.833Z" fill="#536DFE"/>
<path d="M160.865 77.6137C161.106 79.6392 160.8 81.544 160.095 83.0712L163.795 102.241L153.235 103.502L150.619 83.9207C149.569 82.5507 148.821 80.7404 148.58 78.715C148.03 74.0878 150.333 70.0902 153.726 69.7861C157.118 69.482 160.314 72.9865 160.865 77.6137Z" fill="#FFB6B6"/>
<path d="M142.471 108.049C138.831 102.648 129.801 102.139 125.756 107.319C124.65 108.735 124.958 110.327 124.695 112.239C123.574 120.358 141.497 144.348 153.899 147.11C155.526 147.473 156.453 148.996 158.096 149.303C162.962 150.211 167.492 146.858 167.23 142.544L163.861 87.2134L149.708 91.4035L150.614 120.13L142.471 108.049Z" fill="#536DFE"/>
<path d="M109.305 89.1527C120.11 89.1527 128.869 81.5495 128.869 72.1706C128.869 62.7917 120.11 55.1885 109.305 55.1885C98.4997 55.1885 89.7405 62.7917 89.7405 72.1706C89.7405 81.5495 98.4997 89.1527 109.305 89.1527Z" fill="#FFB6B6"/>
<path d="M127.528 59.7007C127.36 59.7358 130.103 57.4145 130.22 57.3638C132.913 56.1953 130.146 67.6169 128.201 67.2956C123.416 66.5069 121.349 64.9412 119.492 68.8496C118.974 69.9363 118.65 71.1632 117.641 71.9402C116.254 72.9976 113.953 72.91 112.822 74.1719C111.913 75.1885 112.176 76.6841 112.849 77.8291C113.522 78.9801 114.545 79.9557 115.157 81.13C115.844 82.4504 112.916 86.651 111.799 89.0112V89.0171L111.792 89.0309C111.495 89.65 110.79 87.8666 110.045 87.6885C109.154 87.4755 107.841 89.3023 106.421 88.9703C106.414 88.9703 106.408 88.9645 106.401 88.9645C105.048 88.6373 103.54 88.2868 102.046 87.9362H102.039C97.8327 86.9431 96.7693 88.3686 96.5674 88.3277L93.9559 85.9557C93.0597 85.3893 93.161 83.5608 92.529 83.0696C92.0122 82.668 90.7238 83.5961 90.344 83.21C88.4821 81.3172 88.0537 79.4236 86.9561 75.6851C85.9532 72.2674 83.8735 62.0376 88.1474 61.576C92.179 61.1379 89.231 56.2654 93.2896 56.4466C93.0473 55.5585 93.4982 54.6062 94.2319 53.9519C94.9588 53.2917 95.928 52.8828 96.9039 52.5322C101.716 50.8263 100.915 49.36 105.99 50.3531C106.495 49.7397 113.825 50.1486 114.74 50.3531C114.807 50.3648 112.472 50.8497 116.086 50.3531C115.951 51.0717 118.24 51.3872 118.105 52.1058C118.61 51.5157 124.035 54.9042 124.163 55.6111C124.331 56.4933 122.796 56.0434 123.82 56.1778C124.425 56.2596 125.462 57.3287 125.361 57.8604C125.798 57.3462 126.236 56.838 126.68 56.3239C126.761 56.3297 126.835 56.3414 126.916 56.3531C128.962 56.6919 126.616 62.4979 126.7 60.688C126.855 57.3638 129.567 59.3093 127.528 59.7007Z" fill="#2F2E41"/>
<path d="M202.48 150.087C202.631 150.409 203.151 150.409 203.302 150.087C204.353 147.838 205.849 145.319 207.476 143.395C207.737 143.087 207.378 142.675 206.963 142.805L203.475 143.9V125.155H202.307V143.9L198.817 142.805C198.403 142.675 198.044 143.086 198.304 143.395C199.932 145.319 201.428 147.838 202.48 150.087Z" fill="#3F3D56"/>
<path d="M225.358 169.388C225.245 169.722 225.652 170.003 226.001 169.832C228.435 168.638 231.412 167.473 234.065 166.845C234.49 166.744 234.504 166.228 234.086 166.106L230.569 165.081L244 150.401L243.085 149.771L229.655 164.45L227.707 161.708C227.476 161.383 226.899 161.511 226.883 161.893C226.778 164.279 226.145 167.059 225.358 169.388Z" fill="#3F3D56"/>
<path d="M214.432 181.898H191.735C190.326 181.898 189.18 180.903 189.18 179.679C186.179 172.066 186.238 164.606 189.18 157.29C189.18 156.067 190.326 155.072 191.735 155.072H214.432C215.841 155.072 216.987 156.067 216.987 157.29V179.679C216.987 180.903 215.841 181.898 214.432 181.898Z" fill="#E6E6E6"/>
<path d="M196.598 155.733C192.922 155.733 189.941 158.32 189.941 161.511V179.204C189.941 180.327 190.989 181.237 192.283 181.237H204.834C211.125 181.237 216.226 176.809 216.226 171.348V157.765C216.226 156.643 215.178 155.733 213.885 155.733H196.598Z" fill="white"/>
<path d="M208.369 162.239H197.743C197.475 162.239 197.257 162.05 197.257 161.817C197.257 161.585 197.475 161.396 197.743 161.396H208.369C208.637 161.396 208.855 161.585 208.855 161.817C208.855 162.05 208.637 162.239 208.369 162.239Z" fill="#E6E6E6"/>
<path d="M208.369 171.232H197.743C197.475 171.232 197.257 171.043 197.257 170.81C197.257 170.578 197.475 170.388 197.743 170.388H208.369C208.637 170.388 208.855 170.578 208.855 170.81C208.855 171.043 208.637 171.232 208.369 171.232Z" fill="#E6E6E6"/>
<path d="M214.071 166.738H192.041C191.773 166.738 191.555 166.549 191.555 166.317C191.555 166.084 191.773 165.895 192.041 165.895H214.071C214.339 165.895 214.557 166.084 214.557 166.317C214.557 166.549 214.339 166.738 214.071 166.738Z" fill="#E6E6E6"/>
<path d="M214.331 174.888H205.139C204.871 174.888 204.653 174.699 204.653 174.467C204.653 174.234 204.871 174.045 205.139 174.045H214.331C214.599 174.045 214.817 174.234 214.817 174.467C214.817 174.699 214.599 174.888 214.331 174.888Z" fill="#E6E6E6"/>
<path d="M8.38853 14.4434C13.0214 14.4434 16.7771 11.2522 16.7771 7.3155C16.7771 3.37885 13.0214 0.187561 8.38853 0.187561C3.75567 0.187561 0 3.37885 0 7.3155C0 11.2522 3.75567 14.4434 8.38853 14.4434Z" fill="#536DFE"/>
<path d="M75.6358 4.87701H30.4836C28.9346 4.87701 27.6743 3.78306 27.6743 2.4385C27.6743 1.09395 28.9346 0 30.4836 0H75.6358C77.1848 0 78.4451 1.09395 78.4451 2.4385C78.4451 3.78306 77.1848 4.87701 75.6358 4.87701Z" fill="#F2F2F2"/>
<path d="M110.873 13.1304H30.4836C28.9346 13.1304 27.6743 12.0365 27.6743 10.6919C27.6743 9.34737 28.9346 8.25342 30.4836 8.25342H110.873C112.422 8.25342 113.682 9.34737 113.682 10.6919C113.682 12.0365 112.422 13.1304 110.873 13.1304Z" fill="#F2F2F2"/>
</g>
<defs>
<clipPath id="clip0_57_1026">
<rect width="244" height="256" fill="white"/>
</clipPath>
</defs>
</svg>
