<svg width="268" height="215" viewBox="0 0 268 215" fill="none" xmlns="http://www.w3.org/2000/svg">
<g clip-path="url(#clip0_57_1000)">
<path d="M152.675 190.205C150.822 187.623 148.313 185.734 145.159 185.027C142.409 184.411 139.581 184.516 136.786 184.537L101.437 184.808C98.4099 184.832 95.5073 187.441 95.648 190.569C95.7876 193.67 98.1923 196.354 101.437 196.329C111.792 196.25 122.146 196.17 132.501 196.091C134.942 196.072 137.385 196.028 139.826 196.036C140.374 196.038 140.92 196.067 141.468 196.073C141.6 196.075 141.696 196.073 141.764 196.071C141.781 196.076 141.795 196.08 141.817 196.086C142.103 196.164 142.396 196.218 142.683 196.292C142.583 196.295 142.87 196.474 143.014 196.534C143.034 196.573 143.076 196.642 143.147 196.748C143.245 196.932 143.536 197.489 143.548 197.472C143.986 198.573 144.347 199.703 144.629 200.854C145.302 203.391 145.45 203.921 145.546 206.301C145.669 209.308 148.122 212.205 151.336 212.062C154.368 211.927 157.256 209.526 157.125 206.301C156.904 200.867 155.945 194.763 152.675 190.205Z" fill="#E6E6E6"/>
<path d="M103.515 203.204C102.851 199.201 102.2 195.195 101.523 191.194C100.836 187.135 99.4338 183.418 96.2593 180.754C95.4111 180.042 94.5316 179.378 93.6484 178.715C93.3378 178.483 93.0278 178.249 92.7209 178.011C92.7025 177.997 92.6908 177.988 92.6749 177.976C92.6412 177.947 92.6007 177.913 92.5463 177.867C91.2232 176.753 89.9447 175.589 88.7269 174.352C87.6455 173.253 86.6113 172.108 85.6243 170.915C85.3777 170.618 85.1342 170.317 84.8939 170.014C84.8526 169.962 84.63 169.676 84.4833 169.489C84.3469 169.302 84.0977 168.964 84.0558 168.905C83.7751 168.51 83.4993 168.112 83.2286 167.709C81.3847 164.96 79.788 162.055 78.4571 159.027C78.3251 158.727 78.1963 158.425 78.0706 158.121C78.0368 158.028 77.9932 157.909 77.9352 157.75C77.667 157.017 77.3993 156.284 77.1541 155.541C76.6331 153.964 76.1852 152.363 75.8103 150.74C75.625 149.938 75.4582 149.132 75.3098 148.322C75.2333 147.906 75.1618 147.488 75.0952 147.07C75.0842 147.001 75.0192 146.549 74.9808 146.294C74.9526 146.038 74.8999 145.585 74.8929 145.514C74.8505 145.093 74.8128 144.671 74.78 144.248C74.706 143.298 74.6559 142.346 74.6298 141.392C74.5853 139.697 74.6158 138.003 74.7213 136.308C74.7814 135.356 74.8669 134.406 74.9722 133.458C74.9786 133.4 74.9835 133.354 74.9881 133.312C74.9945 133.27 75.0019 133.222 75.0107 133.162C75.0886 132.638 75.1706 132.115 75.2623 131.593C75.6096 129.613 76.0612 127.653 76.6153 125.72C76.8777 124.806 77.1626 123.899 77.4702 123C77.6073 122.601 77.7488 122.203 77.8946 121.807C77.8851 121.832 78.3223 120.721 78.3282 120.684C80.0631 116.605 82.9009 112.887 82.9048 108.253C82.9074 105.116 80.2402 102.111 77.1155 102.256C75.5576 102.314 74.0833 102.972 73.0033 104.091C71.9233 105.21 71.3221 106.702 71.3262 108.253C71.3262 108.324 71.3258 108.384 71.3256 108.442C71.2965 108.54 71.2721 108.621 71.2502 108.693C70.9119 109.425 70.4974 110.12 70.126 110.833C69.1091 112.786 68.241 114.803 67.4165 116.849C66.0666 120.181 65.0334 123.632 64.3303 127.156C62.8021 134.877 62.6835 142.809 63.9802 150.572C66.2248 164.186 73.6272 177.218 83.9182 185.977C84.8113 186.737 85.7261 187.472 86.6496 188.192C87.0317 188.489 87.4171 188.782 87.8043 189.072C87.9874 189.209 88.7457 189.804 88.4121 189.516C89.1294 190.125 89.4313 190.432 89.6156 190.88C89.6423 190.984 89.6787 191.124 89.728 191.316C89.8578 191.822 89.9812 192.327 90.0836 192.84C90.9794 197.323 91.602 201.881 92.3502 206.393C92.8645 209.493 96.7001 211.511 99.4718 210.582C102.698 209.5 104.066 206.526 103.515 203.204Z" fill="#E6E6E6"/>
<path d="M153.26 214.832C150.829 214.838 148.494 213.884 146.769 212.18C145.043 210.476 144.067 208.16 144.055 205.741V199.17C137.141 199.94 113.465 199.762 106.678 198.677V205.478C106.66 207.895 105.682 210.208 103.958 211.91C102.233 213.613 99.9024 214.569 97.473 214.569C95.0435 214.569 92.7126 213.613 90.9883 211.91C89.264 210.208 88.2861 207.895 88.2679 205.478V192.124C79.0758 187.043 71.4129 179.613 66.07 170.602C60.7271 161.59 57.8978 151.323 57.874 140.86C57.874 122.92 66.0453 106.184 80.2927 94.9445C89.5562 87.6117 100.811 83.2018 112.612 82.2811C114.214 82.1561 115.826 82.0928 117.403 82.0928C122.958 82.0928 148.02 82.9467 154.309 84.7468L168.647 70.5899C168.858 70.3789 169.127 70.2352 169.421 70.1771C169.714 70.1189 170.018 70.149 170.294 70.2634C170.572 70.3735 170.81 70.5647 170.977 70.8118C171.144 71.059 171.231 71.3506 171.229 71.6483V73.8992L174.021 71.1479C174.231 70.9367 174.5 70.7928 174.793 70.7345C175.086 70.6763 175.39 70.7063 175.666 70.8209C175.944 70.9309 176.182 71.1221 176.35 71.3694C176.517 71.6166 176.605 71.9084 176.602 72.2063V97.3596C183.797 103.814 189.281 111.934 192.567 121.001C195.854 130.068 196.842 139.802 195.444 149.34C194.046 158.878 190.305 167.925 184.552 175.68C178.799 183.435 171.213 189.659 162.465 193.799V205.741C162.453 208.16 161.477 210.476 159.752 212.18C158.026 213.884 155.692 214.838 153.26 214.832ZM144.779 198.353V205.741C144.797 207.967 145.699 210.096 147.287 211.664C148.876 213.232 151.023 214.111 153.26 214.111C155.498 214.111 157.645 213.232 159.233 211.664C160.822 210.096 161.723 207.967 161.741 205.741V193.344L161.948 193.247C171.764 188.612 180.096 181.361 186.021 172.3C193.571 160.736 196.71 146.865 194.872 133.198C193.034 119.53 186.339 106.969 175.999 97.7882L175.878 97.6808V72.2063C175.881 72.0515 175.836 71.8997 175.749 71.7712C175.662 71.6427 175.538 71.5438 175.393 71.4878C175.249 71.4265 175.089 71.4099 174.936 71.4403C174.782 71.4707 174.641 71.5467 174.531 71.6582L170.505 75.6259V71.6483C170.508 71.4935 170.463 71.3417 170.376 71.2132C170.289 71.0848 170.165 70.9859 170.02 70.9299C169.875 70.8686 169.715 70.8522 169.561 70.8828C169.407 70.9135 169.266 70.9897 169.157 71.1014L154.511 85.5615L154.303 85.4966C148.457 83.6761 123 82.8129 117.403 82.8129C115.845 82.8129 114.252 82.8755 112.669 82.9991C101.012 83.9084 89.8932 88.2648 80.7423 95.5086C66.6691 106.611 58.5976 123.141 58.5976 140.86C58.6217 151.23 61.4359 161.405 66.7479 170.327C72.0599 179.25 79.676 186.594 88.8049 191.597L88.9916 191.7V205.478C89.0102 207.704 89.912 209.833 91.5006 211.4C93.0891 212.968 95.2357 213.847 97.473 213.847C99.7102 213.847 101.857 212.968 103.445 211.4C105.034 209.833 105.936 207.704 105.954 205.478V197.815L106.383 197.895C112.482 199.037 138.163 199.217 144.37 198.407L144.779 198.353Z" fill="#3F3D56"/>
<path d="M104.207 42.8857L64.1375 54.8675C62.863 55.2501 61.7933 56.1205 61.1634 57.2874C60.5335 58.4543 60.3948 59.8222 60.7779 61.0908C61.161 62.3593 62.0346 63.4247 63.2066 64.0528C64.3786 64.6809 65.7533 64.8204 67.0286 64.4406L102.094 53.953L102.828 53.7334C102.977 49.9669 104.004 46.2865 105.828 42.9829C105.599 42.8805 105.354 42.8171 105.104 42.7957C104.802 42.7666 104.497 42.7972 104.207 42.8857Z" fill="#536DFE"/>
<path d="M66.3356 66.9951C65.8037 66.9938 65.2856 66.8262 64.8546 66.516C64.4237 66.2059 64.1015 65.7688 63.9338 65.2665L61.4282 57.7434C61.3235 57.4292 61.2821 57.0976 61.3062 56.7675C61.3304 56.4374 61.4197 56.1152 61.569 55.8195C61.7183 55.5237 61.9247 55.2601 62.1764 55.0437C62.428 54.8273 62.7201 54.6624 63.0359 54.5583L95.6482 43.8042C95.964 43.7001 96.2972 43.6588 96.6289 43.6828C96.9607 43.7069 97.2844 43.7956 97.5816 43.9441C97.8789 44.0926 98.1438 44.298 98.3613 44.5483C98.5788 44.7987 98.7446 45.0893 98.8493 45.4034L101.355 52.9266C101.563 53.5453 101.522 54.2206 101.238 54.8092C100.955 55.3978 100.453 55.8537 99.8377 56.0802C99.8075 56.0914 99.7771 56.102 99.7464 56.112L67.1348 66.8657C66.8771 66.9512 66.6072 66.9949 66.3356 66.9951Z" fill="#2F2E41"/>
<path d="M127.411 29.5251C120.829 29.5276 114.506 32.0785 109.781 36.6377C105.055 41.197 102.299 47.4069 102.094 53.953C102.086 54.2086 102.083 54.4679 102.083 54.7271C102.083 59.7116 103.568 64.5841 106.351 68.7285C109.134 72.873 113.09 76.1032 117.718 78.0107C122.346 79.9181 127.439 80.4172 132.352 79.4448C137.265 78.4724 141.779 76.0721 145.321 72.5476C148.863 69.023 151.275 64.5324 152.253 59.6437C153.23 54.755 152.728 49.6878 150.811 45.0827C148.894 40.4776 145.648 36.5416 141.483 33.7724C137.317 31.0032 132.42 29.5251 127.411 29.5251ZM127.411 79.209C120.888 79.2022 114.633 76.6207 110.02 72.0309C105.408 67.4412 102.813 61.218 102.806 54.7271C102.806 54.3923 102.814 54.061 102.828 53.7334C103.024 48.9377 104.632 44.3052 107.453 40.4118C110.274 36.5184 114.183 33.5358 118.693 31.8351C123.204 30.1344 128.118 29.7904 132.823 30.846C137.529 31.9017 141.819 34.3103 145.159 37.7724C148.5 41.2346 150.744 45.5974 151.613 50.3186C152.482 55.0397 151.937 59.9107 150.046 64.3261C148.154 68.7414 145.001 72.5062 140.976 75.1523C136.952 77.7984 132.235 79.2091 127.411 79.209Z" fill="#3F3D56"/>
<path d="M148.759 54.7271C148.759 60.3607 146.51 65.7636 142.506 69.7472C138.503 73.7308 133.073 75.9687 127.411 75.9687C121.749 75.9687 116.319 73.7308 112.316 69.7472C108.312 65.7636 106.063 60.3607 106.063 54.7271C106.063 54.0538 106.095 53.3914 106.157 52.7361C106.671 47.2991 109.271 42.268 113.415 38.6877C117.559 35.1073 122.93 33.2527 128.413 33.5089C133.895 33.7651 139.068 36.1125 142.856 40.0636C146.645 44.0147 148.759 49.266 148.759 54.7271Z" fill="#E6E6E6"/>
<path d="M133.768 56.1384C133.251 55.4614 132.57 54.9252 131.789 54.5794C130.826 54.1755 129.831 53.8504 128.815 53.6074V47.8253C130.377 48.0597 131.842 48.7244 133.045 49.7442L134.224 47.2421C133.546 46.6407 132.767 46.1618 131.923 45.8271C130.987 45.4502 130.005 45.1996 129.003 45.0819V42.1512H126.271V45.1107C125.216 45.2286 124.199 45.5685 123.286 46.108C122.462 46.5935 121.768 47.2704 121.263 48.0809C120.782 48.8719 120.533 49.781 120.543 50.7055C120.496 51.7074 120.788 52.6961 121.372 53.5137C121.909 54.2216 122.619 54.7817 123.434 55.1411C124.413 55.5569 125.425 55.8905 126.459 56.1384V61.6792C124.616 61.5408 122.859 60.8434 121.426 59.681L120.247 62.1868C121.048 62.8459 121.959 63.3601 122.939 63.7061C124.012 64.0884 125.134 64.321 126.271 64.3974V67.3028H129.003V64.3434C130.52 64.1784 131.943 63.5292 133.059 62.4928C133.551 62.024 133.939 61.4586 134.199 60.8327C134.459 60.2068 134.586 59.5338 134.572 58.8566C134.617 57.8866 134.334 56.9295 133.768 56.1384ZM126.459 52.9953C125.794 52.7945 125.175 52.4641 124.639 52.0232C124.427 51.8352 124.259 51.6028 124.148 51.3426C124.036 51.0824 123.984 50.8009 123.995 50.5183C123.976 49.8771 124.212 49.2542 124.654 48.7866C125.143 48.2959 125.775 47.9699 126.459 47.8541V52.9953ZM130.53 60.6567C130.068 61.1278 129.467 61.4394 128.815 61.546V56.7792C129.439 56.9457 130.022 57.2359 130.53 57.6325C130.723 57.7961 130.876 58.0009 130.978 58.2315C131.08 58.4622 131.128 58.7127 131.12 58.9646C131.145 59.5825 130.934 60.187 130.53 60.6567Z" fill="#536DFE"/>
<path d="M67.4986 97.4855C66.9393 97.4846 66.3958 97.3001 65.9526 96.9605C65.5094 96.621 65.1911 96.1455 65.0472 95.6077L63.683 90.4701C63.5123 89.8243 63.6059 89.1375 63.9434 88.5604C64.2808 87.9832 64.8346 87.5628 65.4832 87.3914L108.52 76.0758C109.169 75.9072 109.859 76.0014 110.439 76.3377C111.019 76.6741 111.441 77.2253 111.614 77.8707L112.769 82.2233L112.553 82.24C101.515 83.094 90.9546 87.0759 82.1201 93.7145L82.0573 93.7448L68.1412 97.4025C67.9315 97.4576 67.7155 97.4855 67.4986 97.4855Z" fill="#2F2E41"/>
<path d="M60.3709 122.863C55.3225 122.12 50.4942 120.304 46.2152 117.537C44.0953 116.167 42.1329 114.57 40.363 112.774C38.6161 111.001 36.945 108.986 36.0797 106.625C35.2472 104.441 35.2901 102.022 36.1996 99.8679C37.0966 97.7273 38.8101 96.0279 40.9644 95.1424C43.1317 94.2824 45.7501 94.1904 47.8593 95.1322C48.8644 95.5705 49.7341 96.2671 50.3792 97.1505C50.6791 97.5577 50.9011 98.0163 51.0342 98.5035C51.1578 98.945 51.169 99.4101 51.0669 99.8569C50.9432 100.303 50.7251 100.718 50.4272 101.073C50.1293 101.428 49.7585 101.716 49.3396 101.917C48.4177 102.388 47.4188 102.691 46.3899 102.812C45.355 102.953 43.8684 103.081 43.0364 102.254C42.8652 102.091 42.7305 101.893 42.6411 101.674C42.5786 101.507 42.5572 101.327 42.5787 101.149C42.5666 101.227 42.6289 100.979 42.6254 100.989C42.6122 101.026 42.5552 101.115 42.6362 100.978C42.6615 100.932 42.6897 100.889 42.7206 100.847C42.6931 100.882 42.6327 100.941 42.7405 100.84C42.8296 100.743 42.9442 100.673 43.0713 100.637C43.1214 100.622 43.1722 100.611 43.2224 100.597C43.3501 100.563 43.0952 100.599 43.2258 100.595C43.2762 100.593 43.3272 100.595 43.3774 100.592C43.5055 100.587 43.251 100.558 43.3738 100.588C43.4215 100.6 43.4687 100.612 43.5156 100.627C43.6177 100.659 43.4434 100.552 43.5125 100.632C43.5936 100.725 43.4274 100.541 43.5195 100.631C43.5654 100.676 43.6086 100.724 43.649 100.773C43.8087 100.93 44.0242 101.018 44.2487 101.018C44.4732 101.018 44.6887 100.93 44.8484 100.773C45.0028 100.613 45.0889 100.399 45.0889 100.177C45.0889 99.9543 45.0028 99.7406 44.8484 99.5798C44.0121 98.5482 42.3601 98.8031 41.5141 99.675C40.4351 100.787 40.8624 102.549 41.9119 103.519C43.1 104.618 44.7828 104.694 46.3112 104.51C47.6028 104.387 48.8615 104.033 50.0269 103.465C51.1848 102.899 52.0904 101.925 52.5684 100.733C52.7842 100.097 52.8617 99.4221 52.7958 98.7537C52.7299 98.0853 52.5221 97.4385 52.1862 96.856C50.8368 94.3318 48.0426 93.0376 45.2808 92.8135C43.8589 92.7027 42.429 92.8735 41.0739 93.3162C39.7188 93.7588 38.4653 94.4645 37.3861 95.3923C35.3059 97.2557 34.025 99.8432 33.8082 102.62C33.5671 105.499 34.6897 108.294 36.3263 110.618C38.0396 112.978 40.0842 115.082 42.3976 116.865C46.9203 120.458 52.2254 122.948 57.8884 124.135C58.5619 124.273 59.2391 124.392 59.92 124.49C60.1366 124.542 60.3651 124.51 60.5589 124.401C60.7528 124.291 60.8974 124.113 60.9633 123.901C61.0214 123.685 60.9919 123.455 60.881 123.261C60.7702 123.066 60.5869 122.923 60.3709 122.863Z" fill="#3F3D56"/>
<path d="M141.199 86.1843C133.802 86.0804 126.429 86.2672 119.079 86.7446C116.567 86.9078 114.393 87.7914 114.393 89.2763C114.393 90.5179 116.549 91.9724 119.079 91.8081C126.425 91.3307 133.799 91.144 141.199 91.2477C147.232 91.3325 147.229 86.2689 141.199 86.1843Z" fill="#CCCCCC"/>
<path d="M130.267 90.997C129.467 90.997 110.689 90.9672 110.689 88.3864C110.689 85.8057 129.467 85.776 130.267 85.776C131.066 85.776 149.844 85.8057 149.844 88.3864C149.844 90.9672 131.066 90.997 130.267 90.997ZM111.424 88.3864C111.938 89.1688 118.84 90.2769 130.267 90.2769C141.693 90.2769 148.596 89.1689 149.11 88.3864C148.596 87.6041 141.693 86.4961 130.267 86.4961C118.84 86.4961 111.938 87.6041 111.424 88.3864Z" fill="#3F3D56"/>
<path d="M189.843 158.844C194 158.73 199.174 158.586 203.159 155.689C204.346 154.791 205.321 153.646 206.016 152.333C206.711 151.021 207.109 149.573 207.183 148.091C207.264 145.803 206.434 143.806 204.844 142.47C202.762 140.72 199.722 140.309 196.447 141.267L199.841 116.588L197.349 116.248L193.359 145.262L195.44 144.312C197.852 143.211 201.163 142.651 203.22 144.381C203.726 144.833 204.119 145.395 204.371 146.023C204.622 146.652 204.724 147.329 204.67 148.003C204.609 149.106 204.31 150.183 203.793 151.16C203.277 152.138 202.554 152.993 201.676 153.668C198.574 155.922 194.45 156.213 189.773 156.343L189.843 158.844Z" fill="#3F3D56"/>
<path d="M182.955 118.716H169.411V121.218H182.955V118.716Z" fill="#3F3D56"/>
<path d="M73.6274 108.994C73.0246 108.992 72.4421 108.777 71.9843 108.386C71.5266 107.996 71.2235 107.456 71.1293 106.864L70.3026 101.614C70.1994 100.954 70.3636 100.28 70.7592 99.7397C71.1548 99.1997 71.7495 98.838 72.4129 98.7339L116.387 91.878C117.05 91.7753 117.728 91.9387 118.27 92.3323C118.813 92.726 119.176 93.3177 119.281 93.9777L120.108 99.2276C120.211 99.8879 120.047 100.562 119.651 101.102C119.256 101.642 118.661 102.004 117.998 102.108L74.0237 108.963C73.8926 108.984 73.7601 108.994 73.6274 108.994Z" fill="#2F2E41"/>
<path d="M55.4288 47.4714C65.6203 47.4714 73.8822 39.2507 73.8822 29.11C73.8822 18.9692 65.6203 10.7485 55.4288 10.7485C45.2372 10.7485 36.9753 18.9692 36.9753 29.11C36.9753 39.2507 45.2372 47.4714 55.4288 47.4714Z" fill="#536DFE"/>
<path d="M65.8768 33.8609C66.4666 33.6556 67.0053 33.3271 67.4569 32.8974C67.7556 32.591 67.9834 32.2234 68.1243 31.8202C68.2653 31.417 68.3159 30.988 68.2727 30.5633C68.2476 30.2606 68.1525 29.9678 67.9948 29.7077C67.8371 29.4477 67.6212 29.2274 67.3637 29.0641C66.6959 28.6555 65.8134 28.6709 64.9225 29.0819L64.8197 21.9145L64.0961 21.9247L64.217 30.3508L64.7678 29.9913C65.4065 29.5752 66.3243 29.2734 66.9846 29.6775C67.1479 29.7845 67.2842 29.9275 67.3829 30.0955C67.4816 30.2634 67.5401 30.4517 67.5537 30.6458C67.5842 30.9622 67.5457 31.2814 67.4411 31.5817C67.3364 31.882 67.168 32.1564 66.9472 32.3861C66.1628 33.1605 65.0017 33.42 63.6765 33.6574L63.8047 34.366C64.5092 34.2595 65.2027 34.0905 65.8768 33.8609Z" fill="#2F2E41"/>
<path d="M72.2711 21.4114L68.4175 21.9921L68.5258 22.704L72.3794 22.1233L72.2711 21.4114Z" fill="#2F2E41"/>
<path d="M60.1075 23.244L56.2539 23.8246L56.3623 24.5365L60.2158 23.9558L60.1075 23.244Z" fill="#2F2E41"/>
<path d="M67.6237 108.673C66.96 108.672 66.3125 108.469 65.7674 108.093C65.2222 107.716 64.8052 107.183 64.5718 106.565L51.8487 72.6617C50.2936 68.5036 50.4596 63.9016 52.3104 59.8652C54.1612 55.8288 57.5456 52.6878 61.721 51.1312L72.0664 47.2874C72.4664 47.1378 72.8922 47.0684 73.3193 47.0831C73.7464 47.0979 74.1664 47.1965 74.5551 47.3734C74.9427 47.5458 75.292 47.7933 75.5825 48.1015C75.873 48.4097 76.0988 48.7724 76.2468 49.1685L99.8152 93.4461C99.9682 93.8454 100.04 94.2708 100.028 94.698C100.015 95.1251 99.917 95.5454 99.7403 95.9349C99.5635 96.3243 99.3111 96.6751 98.9975 96.9671C98.6839 97.2591 98.3154 97.4865 97.9132 97.6362L68.7617 108.467C68.3978 108.603 68.0123 108.673 67.6237 108.673Z" fill="#2F2E41"/>
<path d="M68.9275 48.4535L92.3123 79.5692L76.4888 48.7801C76.3582 48.4208 76.1576 48.0907 75.8987 47.8086C75.6398 47.5265 75.3275 47.2979 74.9798 47.1359C74.632 46.9739 74.2556 46.8816 73.8721 46.8644C73.4885 46.8471 73.1052 46.9052 72.7442 47.0354L68.9275 48.4535Z" fill="#E6E6E6"/>
<path d="M105.955 72.084L64.2009 69.4078C63.5428 69.3657 62.8995 69.1949 62.3076 68.9053C61.7158 68.6158 61.1871 68.2131 60.7517 67.7202C60.3163 67.2273 59.9827 66.6539 59.7701 66.0328C59.5574 65.4116 59.4697 64.7549 59.5121 64.1C59.5545 63.4451 59.7261 62.805 60.0171 62.2161C60.3081 61.6273 60.7129 61.1012 61.2082 60.668C61.7036 60.2347 62.2798 59.9028 62.9041 59.6912C63.5284 59.4796 64.1884 59.3923 64.8465 59.4345L106.6 62.1105C106.908 62.1302 107.21 62.2101 107.487 62.3457C107.764 62.4813 108.012 62.6699 108.216 62.9007C108.42 63.1316 108.576 63.4001 108.675 63.691C108.775 63.9819 108.816 64.2895 108.796 64.5961L108.453 69.8991C108.413 70.5184 108.127 71.0966 107.659 71.5063C107.19 71.9161 106.577 72.1238 105.955 72.084Z" fill="#536DFE"/>
<path d="M94.7973 73.7996C94.7422 73.7996 94.6869 73.7979 94.6315 73.7943L60.3456 71.5969C60.0137 71.5757 59.6892 71.4896 59.3907 71.3436C59.0923 71.1975 58.8256 70.9945 58.606 70.7459C58.3864 70.4973 58.2182 70.2081 58.1109 69.8948C58.0036 69.5816 57.9594 69.2503 57.9808 68.9201L58.5671 59.8624C58.5885 59.5321 58.6751 59.2093 58.8219 58.9123C58.9687 58.6153 59.1728 58.35 59.4226 58.1315C59.6725 57.913 59.9631 57.7456 60.278 57.6389C60.5929 57.5322 60.9258 57.4883 61.2577 57.5096L95.5434 59.7068C96.2135 59.7505 96.8388 60.0569 97.2821 60.5587C97.7254 61.0605 97.9506 61.7168 97.9081 62.3836L97.3219 71.4415C97.2896 71.9268 97.1173 72.3926 96.8255 72.7828C96.5337 73.1731 96.1349 73.4713 95.677 73.6416C95.3957 73.7463 95.0977 73.7998 94.7973 73.7996Z" fill="#2F2E41"/>
<path d="M55.2173 16.8999C57.6449 14.8224 60.9786 16.6809 63.7626 16.3555C66.4261 16.0443 68.5293 13.667 69.0666 11.1415C69.6934 8.195 68.1563 5.24306 65.8909 3.40599C63.4096 1.39394 60.1189 0.816333 57.0005 1.18858C53.4265 1.61521 50.1578 3.27291 47.2249 5.27797C44.3939 7.1534 41.7905 9.34847 39.4666 11.8194C37.3857 14.1062 35.6226 16.832 35.0596 19.9091C34.548 22.7057 34.9387 25.8046 36.6001 28.1736C37.4811 29.3879 38.6618 30.3557 40.0282 30.9838C41.4529 31.6799 42.9726 32.1775 44.3529 32.9645C46.4398 34.1545 48.4681 36.622 47.8144 39.1898C47.6743 39.7507 47.3977 40.2687 47.009 40.6983C46.542 41.2141 45.6996 40.5325 46.1679 40.0153C46.9902 39.1069 46.9578 37.8955 46.5196 36.8109C45.9984 35.5889 45.0756 34.5791 43.9023 33.9472C42.4575 33.1253 40.8624 32.6179 39.3815 31.8692C37.9642 31.1853 36.7338 30.1708 35.7953 28.912C34.0229 26.4613 33.4928 23.2719 33.8947 20.3214C34.3297 17.1285 35.9784 14.2271 38.0452 11.7958C40.2944 9.14975 43.0573 6.90998 45.8797 4.89785C48.9083 2.73881 52.2543 0.913496 55.9568 0.253309C59.1663 -0.318971 62.6452 0.0333606 65.4517 1.77368C68.0715 3.39816 70.0804 6.19259 70.2802 9.31509C70.3519 10.7358 70.0419 12.1499 69.382 13.4118C68.7221 14.6737 67.7362 15.7379 66.5257 16.4948C65.2837 17.2344 63.8396 17.5672 62.3972 17.4465C60.8553 17.3483 59.3118 16.8784 57.76 17.0089C57.0577 17.0513 56.3886 17.3203 55.8538 17.7752C55.3234 18.2291 54.6913 17.3501 55.2173 16.8999Z" fill="#2F2E41"/>
<path d="M267.569 215H0.430802C0.316756 215 0.207496 214.954 0.12697 214.874C0.0464433 214.794 0.0012207 214.685 0.0012207 214.571C0.0012207 214.458 0.0464433 214.349 0.12697 214.269C0.207496 214.188 0.316756 214.143 0.430802 214.143H267.569C267.683 214.143 267.793 214.188 267.874 214.268C267.955 214.349 268 214.458 268 214.571C268 214.685 267.955 214.794 267.874 214.874C267.793 214.955 267.683 215 267.569 215Z" fill="#3F3D56"/>
</g>
<defs>
<clipPath id="clip0_57_1000">
<rect width="268" height="215" fill="white"/>
</clipPath>
</defs>
</svg>
