<svg width="312" height="214" viewBox="0 0 312 214" fill="none" xmlns="http://www.w3.org/2000/svg">
<g clip-path="url(#clip0_57_868)">
<path d="M287.866 103.335H34.8683C31.4772 103.335 28.7183 100.446 28.7183 96.8938V6.44111C28.7183 2.88946 31.4772 0 34.8683 0H287.866C291.257 0 294.016 2.88946 294.016 6.44111V96.8938C294.016 100.446 291.257 103.335 287.866 103.335ZM34.8683 0.767924C31.8816 0.767924 29.4515 3.31299 29.4515 6.44111V96.8938C29.4515 100.022 31.8816 102.567 34.8683 102.567H287.866C290.853 102.567 293.283 100.022 293.283 96.8938V6.44111C293.283 3.31299 290.853 0.767924 287.866 0.767924H34.8683Z" fill="#3F3D56"/>
<path d="M312 211.393H0V212.039H312V211.393Z" fill="#E6E6E6"/>
<path d="M312 178.372H0V179.018H312V178.372Z" fill="#E6E6E6"/>
<path d="M276.545 4.34515H39.5065V90.1624H276.545V4.34515Z" fill="white"/>
<path d="M45.1989 11.9492L44.5714 12.4392L76.3913 37.2854L86.3754 29.4892L103.903 43.1761L125.425 26.3709L162.034 54.9571L178.674 41.9631L215.062 70.3764L235.474 54.4374L272.879 83.6447L273.506 83.1547L235.474 53.4574L215.062 69.3964L178.674 40.9835L162.034 53.9772L125.425 25.3909L103.903 42.1961L86.3754 28.5093L76.3913 36.3057L45.1989 11.9492Z" fill="#536DFE"/>
<path d="M124.597 30.4162C126.835 30.4162 128.649 28.714 128.649 26.6142C128.649 24.5144 126.835 22.8121 124.597 22.8121C122.36 22.8121 120.545 24.5144 120.545 26.6142C120.545 28.714 122.36 30.4162 124.597 30.4162Z" fill="#536DFE"/>
<path d="M160.558 57.5736C163.076 57.5736 165.117 55.8714 165.117 53.7716C165.117 51.6718 163.076 49.9695 160.558 49.9695C158.041 49.9695 156 51.6718 156 53.7716C156 55.8714 158.041 57.5736 160.558 57.5736Z" fill="#536DFE"/>
<path d="M236.026 57.5736C239.383 57.5736 242.104 55.8714 242.104 53.7716C242.104 51.6718 239.383 49.9695 236.026 49.9695C232.669 49.9695 229.948 51.6718 229.948 53.7716C229.948 55.8714 232.669 57.5736 236.026 57.5736Z" fill="#536DFE"/>
<path d="M145.676 142.333C145.9 145.282 147.535 147.551 149.327 147.402C151.118 147.252 152.389 144.74 152.164 141.791C152.09 140.611 151.747 139.467 151.164 138.455L150.064 125.973L144.483 126.639L146.16 138.873C145.737 139.969 145.571 141.156 145.676 142.333Z" fill="#FFB6B6"/>
<path d="M139.009 84.1019C139.009 84.1019 144.226 81.2091 146.872 85.5319C149.517 89.8548 151.343 136.607 151.343 136.607L144.01 137.427L142.62 104.482L139.009 84.1019Z" fill="#E6E6E6"/>
<path d="M128.179 211.605L132.427 211.604L134.448 194.443L128.178 194.444L128.179 211.605Z" fill="#FFB6B6"/>
<path d="M142.734 211.504C142.866 211.737 142.936 212.49 142.936 212.761C142.936 213.595 142.29 214.271 141.494 214.271H128.338C127.795 214.271 127.355 213.81 127.355 213.241V212.668C127.355 212.668 126.704 210.943 128.044 208.818C128.044 208.818 129.709 210.482 132.197 207.876L132.931 206.484L138.243 210.553L141.187 210.932C141.831 211.015 142.402 210.919 142.734 211.504Z" fill="#2F2E41"/>
<path d="M152.762 210.868L156.878 209.766L154.781 192.615L148.706 194.241L152.762 210.868Z" fill="#FFB6B6"/>
<path d="M166.84 206.997C167.023 207.189 167.269 207.901 167.333 208.164C167.53 208.972 167.064 209.794 166.293 210L153.546 213.411C153.02 213.551 152.484 213.219 152.35 212.667L152.214 212.112C152.214 212.112 151.176 210.61 151.972 208.204C151.972 208.204 153.979 209.384 155.774 206.214L156.156 204.675L162.264 207.24L165.207 206.845C165.85 206.758 166.381 206.517 166.84 206.997Z" fill="#2F2E41"/>
<path d="M124.665 80.4127L124.463 78.8819L126.857 72.7585L133.435 71.993L134.855 80.7595L124.665 80.4127Z" fill="#FFB6B6"/>
<path opacity="0.1" d="M124.665 80.4127L124.463 78.8819L126.857 72.7585L133.435 71.993L134.855 80.7595L124.665 80.4127Z" fill="#FFB6B6"/>
<path d="M116.991 123.659L114.068 132.079L116.26 136.672L127.223 203.264H134.511L133.069 144.326L149.879 203.264H157.092L151.291 163.462L146.955 126.721L144.325 125.019L131.608 117.536L116.991 123.659Z" fill="#2F2E41"/>
<path d="M135.627 129.4L131.242 130.165L125.396 115.622H138.551L135.627 129.4Z" fill="#E6E6E6"/>
<path d="M144.397 125.573L135.627 129.4L132.704 122.511L131.242 130.165L115.895 124.991L118.087 115.622L115.895 85.0053L123.634 79.6014L124.665 78.8819L134.166 79.6473L134.999 80.1219L140.743 83.4745L142.205 108.734L144.397 125.573Z" fill="#2F2E41"/>
<path d="M134.999 80.1219L130.877 98.4003L123.634 79.6014L124.665 78.8819L134.166 79.6473L134.999 80.1219Z" fill="#E6E6E6"/>
<path d="M127.954 78.8819L126.492 81.5184L127.954 82.3972L127.223 98.4478L130.146 102.61L133.069 96.4584L130.877 82.3972L131.608 78.8819H127.954Z" fill="#2F2E41"/>
<path d="M130.146 77.351C133.98 77.351 137.089 74.0954 137.089 70.0795C137.089 66.0635 133.98 62.8079 130.146 62.8079C126.311 62.8079 123.203 66.0635 123.203 70.0795C123.203 74.0954 126.311 77.351 130.146 77.351Z" fill="#FFB6B6"/>
<path d="M125.709 70.7173L127.209 71.403L127.864 67.2889C127.864 67.2889 130.483 65.9175 132.447 66.6032C134.411 67.2889 137.685 66.6032 137.685 66.6032C137.685 66.6032 137.685 59.7462 133.102 59.7462C128.519 59.7462 123.936 60.4319 123.936 62.489C123.936 64.5461 121.971 66.6032 121.971 66.6032C121.971 66.6032 119.353 70.7173 121.971 73.4601C124.59 76.2029 125.9 76.2029 125.9 76.2029L125.709 70.7173Z" fill="#2F2E41"/>
<path d="M112.237 142.118C112.161 145.075 113.556 147.513 115.353 147.564C117.15 147.614 118.668 145.258 118.743 142.3C118.789 141.119 118.564 139.943 118.087 138.872L118.259 126.338L112.641 126.379L113.069 138.731C112.537 139.774 112.252 140.936 112.237 142.118Z" fill="#FFB6B6"/>
<path d="M119.187 83.4601C119.187 83.4601 114.437 81.9292 112.244 86.5218C110.051 91.1144 112.975 137.805 112.975 137.805H120.349L118.392 104.892L119.187 83.4601Z" fill="#E6E6E6"/>
<path d="M297.931 134.774L280.215 129.094C279.823 128.968 279.412 128.923 279.004 128.959L189.22 136.962C187.94 137.076 187.618 138.884 188.773 139.474L191.649 140.941H191.572V211.187H194.282V142.285L203.296 146.884C203.985 147.235 204.755 147.379 205.518 147.298L206.477 147.197V211.187H209.187V146.91L278.631 139.564V211.187H281.341V139.277L292.858 138.059V211.187H295.568V137.772L297.669 137.55C299.145 137.394 299.348 135.228 297.931 134.774Z" fill="#3F3D56"/>
<path d="M215.285 136.684C216.978 136.684 242.046 133.491 242.046 133.491L245.772 138.812L219.688 144.134L215.285 136.684Z" fill="white"/>
<path d="M242.796 208.459L238.441 208.451L236.398 190.854L242.826 190.866L242.796 208.459Z" fill="#A0616A"/>
<path d="M227.875 208.329C227.739 208.568 227.666 209.34 227.666 209.618C227.665 210.473 228.325 211.167 229.142 211.169L242.629 211.193C243.186 211.194 243.638 210.722 243.639 210.139L243.64 209.551C243.64 209.551 244.31 207.784 242.94 205.603C242.94 205.603 241.23 207.306 238.683 204.63L237.933 203.201L232.481 207.362L229.462 207.746C228.801 207.83 228.216 207.731 227.875 208.329Z" fill="#2F2E41"/>
<path d="M266.171 200.276L262.735 202.991L251.102 190.402L256.174 186.396L266.171 200.276Z" fill="#A0616A"/>
<path d="M254.34 209.495C254.369 209.769 254.751 210.422 254.909 210.642C255.395 211.316 256.311 211.451 256.955 210.942L267.596 202.535C268.035 202.188 268.123 201.533 267.791 201.073L267.457 200.609C267.457 200.609 266.979 198.799 264.657 197.936C264.657 197.936 264.28 200.346 260.749 199.828L259.344 199.171L257.418 205.856L255.258 208.045C254.786 208.524 254.268 208.811 254.34 209.495Z" fill="#2F2E41"/>
<path d="M257.069 109.329C257.069 113.536 253.813 116.945 249.797 116.945C245.781 116.945 242.525 113.536 242.525 109.329C242.525 105.123 245.781 101.713 249.797 101.713C253.813 101.713 257.069 105.123 257.069 109.329Z" fill="#A0616A"/>
<path d="M256.384 153.242C256.384 153.242 229.609 151.655 228.094 154.829C226.578 158.004 236.287 201.608 236.287 201.608L244.949 199.707L240.723 169.114C240.723 169.114 263.066 175.311 266.097 167.904C269.128 160.497 268.255 157.739 268.255 157.739L256.384 153.242Z" fill="#2F2E41"/>
<path d="M263.244 147.913C263.244 147.913 237.022 153.8 236.362 157.282C235.703 160.763 256.079 200.125 256.079 200.125L263.952 195.891L252.15 167.559C252.15 167.559 275.262 167.345 276.314 159.362C277.366 151.379 275.828 148.961 275.828 148.961L263.244 147.913Z" fill="#2F2E41"/>
<path d="M266.235 118.058H253.637L245.017 132.872C245.017 132.872 242.997 142.446 245.017 143.479C247.038 144.512 247.038 155.623 247.038 155.623L268.255 157.739C268.255 157.739 271.286 124.407 270.276 121.232C269.266 118.058 266.235 118.058 266.235 118.058Z" fill="#536DFE"/>
<path d="M246.28 127.846L245.017 143.479L230.812 137.165L227.422 135.379C226.758 134.472 225.896 133.745 224.908 133.258C222.453 132.005 219.846 132.315 219.085 133.951C218.324 135.587 219.696 137.929 222.151 139.182C223.126 139.696 224.204 139.959 225.295 139.948L235.215 145.849L235.227 145.826L235.271 145.908L250.827 152.713L254.406 132.19L246.28 127.846Z" fill="#A0616A"/>
<path d="M244.765 110.386C244.765 110.386 237.187 111.444 240.218 104.566C240.218 104.566 239.756 100.837 242.008 100.585C244.26 100.333 247.291 96.1007 247.291 96.1007C247.291 96.1007 254.24 92.3971 257.838 96.1007C261.436 99.8043 272.044 121.497 272.044 121.497L264.972 129.433C264.972 129.433 260.72 117.726 255.773 119.083C250.827 120.439 246.28 124.482 246.28 124.482C246.28 124.482 241.26 121.851 243.518 119.557C245.775 117.264 244.765 110.386 244.765 110.386Z" fill="#2F2E41"/>
<path d="M254.868 122.026C254.868 122.026 251.332 117.264 248.806 120.968C246.28 124.671 244.26 129.433 244.26 129.433L254.363 133.137L254.868 122.026Z" fill="#536DFE"/>
<path d="M293.23 210.134L281.491 171.058L281.493 171.058H281.52L281.473 170.994L281.472 170.993L280.636 168.21L280.636 168.209C281.91 167.06 282.777 165.417 282.95 163.526L277.584 132.618C277.953 128.559 274.982 125.011 271.09 124.866L258.983 124.834C255.542 124.706 252.561 127.31 252.059 130.879L251.792 132.774L248.082 159.202C247.947 160.152 248.001 161.089 248.214 161.965L245.545 162.331L244.735 162.444L241.534 162.881L241.524 162.884L241.124 162.937H240.691V174.29H240.718V210.577C240.718 210.811 240.901 211.003 241.124 211.003C241.351 211.003 241.534 210.811 241.534 210.577V174.29H246.284L251.023 210.535C251.053 210.748 251.226 210.904 251.429 210.904C251.446 210.904 251.466 210.904 251.483 210.9C251.707 210.868 251.863 210.652 251.832 210.418L247.11 174.29H269.898C272.16 174.29 274.257 173.538 275.964 172.251L284.999 210.468C285.046 210.662 285.212 210.79 285.394 210.79C285.428 210.79 285.462 210.786 285.495 210.777C285.714 210.719 285.846 210.486 285.79 210.257L276.668 171.67C276.789 171.564 276.91 171.451 277.025 171.335L280.652 171.112L292.452 210.391C292.506 210.573 292.667 210.69 292.841 210.69C292.881 210.69 292.923 210.684 292.963 210.67C293.178 210.599 293.298 210.359 293.23 210.134ZM279.86 168.816C279.891 168.798 279.918 168.777 279.945 168.759L280.032 169.049L279.86 168.816Z" fill="#E6E6E6"/>
<path d="M62.8981 143.899L70.7982 138.638L74.0101 140.667L62.8981 154.039V143.899Z" fill="#FFB6B6"/>
<path d="M52.0947 123.533C52.0947 123.533 46.8474 124.826 49.3167 132.261C51.7861 139.697 59.8114 155.214 62.2807 154.244C64.75 153.274 65.0587 143.576 65.0587 143.576C65.0587 143.576 64.75 143.899 63.5154 142.606C62.2807 141.313 62.2807 141.904 62.2807 140.477C62.2807 139.05 61.2709 137.993 61.2709 137.993L60.1201 135.494C60.1201 135.494 60.12 123.856 55.4901 123.21C50.8601 122.563 52.0947 123.533 52.0947 123.533Z" fill="#E6E6E6"/>
<path d="M76.6104 140.319C78.6596 138.173 79.2948 135.358 78.0291 134.033C76.7634 132.707 74.0762 133.372 72.0269 135.519C69.9777 137.665 69.3426 140.479 70.6083 141.805C71.8739 143.13 74.5612 142.465 76.6104 140.319Z" fill="#FFB6B6"/>
<path d="M31.6562 166.367L37.047 175.712L68.4617 173.765L60.0969 162.473L31.6562 166.367Z" fill="#E6E6E6"/>
<path d="M41.043 210.073C40.8601 210.073 40.7007 209.932 40.6752 209.737L31.2879 137.933C31.26 137.72 31.4024 137.524 31.6058 137.495C31.8091 137.464 31.9966 137.614 32.0246 137.827L41.4118 209.631C41.4397 209.844 41.2974 210.041 41.094 210.07C41.0768 210.072 41.0598 210.073 41.043 210.073Z" fill="#E6E6E6"/>
<path d="M31.6562 210.164C31.4509 210.164 31.2844 209.99 31.2844 209.775V137.894C31.2844 137.679 31.4509 137.505 31.6562 137.505C31.8615 137.505 32.028 137.679 32.028 137.894V209.775C32.028 209.99 31.8615 210.164 31.6562 210.164Z" fill="#E6E6E6"/>
<path d="M78.7783 209.879C78.6203 209.879 78.4737 209.772 78.4238 209.606L56.2104 135.661C56.1487 135.456 56.2576 135.237 56.4534 135.173C56.6492 135.108 56.8581 135.222 56.9196 135.427L79.133 209.372C79.1946 209.577 79.0858 209.796 78.8899 209.861C78.8528 209.873 78.8152 209.879 78.7783 209.879Z" fill="#E6E6E6"/>
<path d="M71.9933 209.97C71.8273 209.97 71.6761 209.853 71.6332 209.676L56.2047 144.415C56.1541 144.206 56.2744 143.994 56.4733 143.941C56.6729 143.889 56.8747 144.014 56.9253 144.223L72.3539 209.484C72.4045 209.693 72.2842 209.905 72.0852 209.958C72.0545 209.966 72.0236 209.97 71.9933 209.97Z" fill="#E6E6E6"/>
<path d="M31.6562 139.039L57.4015 138.625L62.1416 166.951H32.028L31.6562 139.039Z" fill="#E6E6E6"/>
<path d="M71.2204 180.691L64.7321 192.655L72.2655 194.392L75.4062 185.883L71.2204 180.691Z" fill="#FFB6B6"/>
<path d="M67.0624 190.396C67.0624 190.396 66.8103 188.445 65.3281 189.064C63.8459 189.683 59.5681 191.984 59.5681 191.984C59.5681 191.984 70.7255 210.972 72.8429 210.087C74.9604 209.203 72.4256 203.835 72.4256 203.835L72.9851 194.348L67.0624 190.396Z" fill="#2F2E41"/>
<path d="M42.526 157.477C42.526 157.477 40.211 168.63 47.3103 172.509C54.4096 176.388 78.6399 166.852 78.6399 166.852L67.528 184.289L75.2446 187.541C75.2446 187.541 92.8386 163.296 91.6039 159.416C90.3692 155.537 82.0353 155.214 82.0353 155.214L63.2066 156.184L58.268 154.567L42.526 157.477Z" fill="#2F2E41"/>
<path d="M61.6215 186.001L51.4214 194.672L57.8348 199.161L63.7166 192.432L61.6215 186.001Z" fill="#FFB6B6"/>
<path d="M54.3769 193.456C54.3769 193.456 54.8199 191.543 53.2242 191.554C51.6285 191.566 46.8446 192.079 46.8446 192.079C46.8446 192.079 50.6401 214.017 52.9197 214C55.1993 213.983 54.7031 208.018 54.7031 208.018L58.5204 199.394L54.3769 193.456Z" fill="#2F2E41"/>
<path d="M42.9601 153.442C42.9601 153.442 36.9288 162.949 42.1936 169.267C47.4584 175.586 73.341 175.938 73.341 175.938L56.9322 187.945L62.99 193.915C62.99 193.915 87.8017 178.037 87.9995 173.953C88.1973 169.869 80.547 166.392 80.547 166.392L62.6722 160.119L58.6337 156.732L42.9601 153.442Z" fill="#2F2E41"/>
<path d="M58.454 131.424C58.454 131.424 52.5893 129.161 49.8113 129.161C49.5459 129.161 49.2835 129.194 49.0211 129.252C47.2432 129.646 45.6073 131.246 44.8233 132.119C44.5177 132.462 44.3418 132.691 44.3418 132.691C44.3418 132.691 44.3603 132.468 44.3973 132.077C44.5794 130.021 45.2523 123.274 46.4592 118.956C46.8913 117.414 47.3883 116.182 47.9593 115.584C49.2897 114.187 49.9039 112.513 50.1879 111.265C50.4287 110.195 50.4287 109.442 50.4287 109.442L48.1785 108.427L47.7618 105.575C47.6877 105.911 47.3451 106.568 46.1938 107.825C46.095 107.932 45.9869 108.022 45.8727 108.1C44.2121 109.193 40.8261 107.292 39.0018 106.096C39.7612 103.332 41.1378 100.804 43.638 100.39C49.5027 99.4202 49.5027 95.8642 53.2067 99.7434C53.5122 100.063 53.8209 100.371 54.1296 100.668C55.3148 103.041 55.747 106.222 55.9013 108.433C56.0124 109.981 55.9846 111.058 55.9846 111.058C55.9846 111.058 57.528 120.756 59.9973 122.696C62.4666 124.635 58.454 131.424 58.454 131.424Z" fill="#2F2E41"/>
<path d="M47.0333 115.907L42.8627 122.314L52.2806 124.959V115.907H47.0333Z" fill="#FFB6B6"/>
<path opacity="0.1" d="M47.0333 115.907L42.8627 122.314L52.2806 124.959V115.907H47.0333Z" fill="black"/>
<path d="M52.8663 122.078L43.915 118.199C43.915 118.199 31.877 123.695 32.803 134.363C33.729 145.031 42.3717 163.457 42.3717 163.457L59.657 155.699L57.805 135.009L52.8663 122.078Z" fill="#E6E6E6"/>
<path d="M49.0283 118.768C53.3898 118.768 56.9255 115.065 56.9255 110.497C56.9255 105.929 53.3898 102.226 49.0283 102.226C44.6668 102.226 41.1311 105.929 41.1311 110.497C41.1311 115.065 44.6668 118.768 49.0283 118.768Z" fill="#FFB6B6"/>
<path d="M59.6886 107.502C58.1452 109.118 56.9106 110.735 56.9106 110.735L56.2932 108.149C56.2932 108.149 56.1512 108.258 55.9012 108.433C54.9228 109.131 52.296 110.887 50.1878 111.265C49.2495 111.433 48.4161 111.326 47.8728 110.735C46.7215 109.477 46.3789 108.821 46.3048 108.485L45.8881 111.336L43.6379 112.351C43.6379 112.351 43.6379 115.901 46.1073 118.493C46.2276 118.619 46.3449 118.775 46.4591 118.956C47.6382 120.818 48.484 125.376 49.0211 129.252C49.4964 132.698 49.7248 135.601 49.7248 135.601C49.7248 135.601 47.3882 132.536 44.8232 132.119C44.6812 132.097 44.5392 132.08 44.3973 132.077C44.3509 132.071 44.3016 132.071 44.2553 132.071C41.4773 132.071 35.6126 134.334 35.6126 134.334C35.6126 134.334 31.6 127.545 34.0693 125.605C36.5386 123.666 38.0819 113.967 38.0819 113.967C38.0819 113.967 37.9801 109.817 39.0018 106.096C39.7611 103.332 41.1377 100.804 43.6379 100.39C49.5026 99.4202 49.5026 95.8642 53.2066 99.7434C53.5122 100.063 53.8208 100.371 54.1295 100.668C57.5804 103.991 61.1054 106.018 59.6886 107.502Z" fill="#2F2E41"/>
<path d="M25.052 150.897H22.1191V211.563H25.052V150.897Z" fill="#3F3D56"/>
<path d="M96.175 150.897H93.2421V211.563H96.175V150.897Z" fill="#3F3D56"/>
<path d="M77.4777 125.172H58.0472V145.522H77.4777V125.172Z" fill="#536DFE"/>
<path d="M46.8474 146.809L54.7476 141.547L57.9594 143.576L46.8474 156.949V146.809Z" fill="#FFB6B6"/>
<path d="M36.0441 126.442C36.0441 126.442 30.7967 127.736 33.2661 135.171C35.7354 142.606 43.7607 158.123 46.2301 157.153C48.6994 156.184 49.008 146.485 49.008 146.485C49.008 146.485 48.6994 146.809 47.4647 145.516C46.2301 144.223 46.2301 144.813 46.2301 143.386C46.2301 141.96 45.2202 140.902 45.2202 140.902L44.0694 138.404C44.0694 138.404 44.0694 126.766 39.4394 126.119C34.8094 125.473 36.0441 126.442 36.0441 126.442Z" fill="#E6E6E6"/>
<path d="M60.5597 143.228C62.6089 141.082 63.2441 138.268 61.9784 136.942C60.7127 135.617 58.0255 136.282 55.9763 138.428C53.9271 140.574 53.2919 143.389 54.5576 144.714C55.8233 146.04 58.5105 145.374 60.5597 143.228Z" fill="#FFB6B6"/>
<path d="M102.041 148.593H13.3204V155.505H102.041V148.593Z" fill="#3F3D56"/>
<path d="M192.18 93.3027H179.077C178.038 93.3027 177.196 94.1846 177.196 95.2724V100.932C177.196 102.02 178.038 102.902 179.077 102.902H192.18C193.219 102.902 194.061 102.02 194.061 100.932V95.2724C194.061 94.1846 193.219 93.3027 192.18 93.3027Z" fill="#3F3D56"/>
<path d="M219.676 98.9624H206.573C205.534 98.9624 204.692 99.8443 204.692 100.932V100.932C204.692 102.02 205.534 102.902 206.573 102.902H219.676C220.715 102.902 221.557 102.02 221.557 100.932C221.557 99.8443 220.715 98.9624 219.676 98.9624Z" fill="#536DFE"/>
</g>
<defs>
<clipPath id="clip0_57_868">
<rect width="312" height="214" fill="white"/>
</clipPath>
</defs>
</svg>
