<svg width="287" height="240" viewBox="0 0 287 240" fill="none" xmlns="http://www.w3.org/2000/svg">
<g clip-path="url(#clip0_57_678)">
<path d="M121.694 230.579C122.744 230.648 123.325 229.277 122.53 228.478L122.451 228.148C122.461 228.121 122.472 228.095 122.482 228.068C123.545 225.407 127.145 225.425 128.198 228.091C129.133 230.456 130.323 232.826 130.616 235.327C130.747 236.431 130.688 237.556 130.455 238.639C132.646 233.612 133.798 228.123 133.798 222.602C133.798 221.215 133.726 219.828 133.578 218.444C133.457 217.313 133.289 216.188 133.072 215.073C131.9 209.049 129.362 203.311 125.7 198.519C123.94 197.508 122.472 195.927 121.585 194.033C121.267 193.35 121.017 192.615 120.899 191.866C121.099 191.894 121.654 188.688 121.503 188.492C121.782 188.047 122.282 187.825 122.587 187.391C124.103 185.231 126.192 185.608 127.283 188.544C129.613 189.779 129.635 191.828 128.206 193.798C127.296 195.052 127.171 196.749 126.373 198.091C126.455 198.201 126.541 198.308 126.623 198.418C128.128 200.447 129.43 202.628 130.528 204.919C130.218 202.373 130.676 199.305 131.457 197.328C132.346 195.075 134.012 193.178 135.479 191.23C137.241 188.891 140.855 189.912 141.165 192.877C141.168 192.906 141.171 192.935 141.174 192.963C140.956 193.093 140.743 193.23 140.534 193.375C139.345 194.201 139.756 196.139 141.165 196.367L141.197 196.372C141.118 197.197 140.984 198.015 140.787 198.819C142.669 206.466 138.605 209.252 132.803 209.377C132.675 209.446 132.55 209.515 132.422 209.58C133.01 211.319 133.48 213.103 133.828 214.911C134.14 216.509 134.357 218.123 134.478 219.745C134.629 221.791 134.616 223.848 134.452 225.89L134.462 225.818C134.879 223.568 136.041 221.467 137.729 220.011C140.244 217.841 143.796 217.041 146.509 215.297C147.815 214.457 149.488 215.542 149.26 217.133L149.249 217.209C148.845 217.382 148.451 217.582 148.07 217.806C147.852 217.935 147.639 218.072 147.43 218.217C146.241 219.044 146.652 220.981 148.061 221.21L148.093 221.215C148.116 221.218 148.136 221.222 148.159 221.225C147.466 222.954 146.501 224.558 145.292 225.942C144.115 232.618 139.061 233.251 133.654 231.307H133.65C133.059 234.012 132.196 236.655 131.086 239.174H121.923C121.891 239.067 121.861 238.957 121.831 238.85C122.679 238.905 123.533 238.853 124.367 238.691C123.687 237.815 123.007 236.931 122.327 236.055C122.311 236.038 122.298 236.021 122.285 236.003C121.94 235.555 121.592 235.11 121.247 234.661L121.247 234.661C121.225 233.284 121.383 231.911 121.694 230.579Z" fill="#F2F2F2"/>
<path d="M0 239.364C0 239.717 0.26949 240 0.605078 240H205.655C205.991 240 206.26 239.717 206.26 239.364C206.26 239.012 205.991 238.729 205.655 238.729H0.605078C0.26949 238.729 0 239.012 0 239.364Z" fill="#CCCCCC"/>
<path d="M276.971 239.858H171.951C166.422 239.858 161.923 235.131 161.923 229.321V10.537C161.923 4.72699 166.422 0 171.951 0H276.971C282.501 0 287 4.72699 287 10.537V229.321C287 235.131 282.501 239.858 276.971 239.858ZM171.951 1.06841C166.974 1.06841 162.94 5.30752 162.94 10.5367V229.321C162.94 234.551 166.975 238.79 171.952 238.79H276.971C281.948 238.79 285.983 234.551 285.983 229.321V80.5074C285.983 36.6344 252.132 1.06841 210.375 1.06841H171.951Z" fill="#BCBCBC"/>
<path d="M191.751 107.973C198.491 107.973 203.954 102.232 203.954 95.1517C203.954 88.0709 198.491 82.3307 191.751 82.3307C185.012 82.3307 179.549 88.0709 179.549 95.1517C179.549 102.232 185.012 107.973 191.751 107.973Z" fill="#E6E6E6"/>
<path d="M257.171 107.973C263.91 107.973 269.374 102.232 269.374 95.1517C269.374 88.0709 263.91 82.3307 257.171 82.3307C250.432 82.3307 244.969 88.0709 244.969 95.1517C244.969 102.232 250.432 107.973 257.171 107.973Z" fill="#E6E6E6"/>
<path d="M224.461 107.973C231.201 107.973 236.664 102.232 236.664 95.1517C236.664 88.0709 231.201 82.3307 224.461 82.3307C217.722 82.3307 212.259 88.0709 212.259 95.1517C212.259 102.232 217.722 107.973 224.461 107.973Z" fill="#E6E6E6"/>
<path d="M191.751 144.833C198.491 144.833 203.954 139.093 203.954 132.012C203.954 124.931 198.491 119.191 191.751 119.191C185.012 119.191 179.549 124.931 179.549 132.012C179.549 139.093 185.012 144.833 191.751 144.833Z" fill="#E6E6E6"/>
<path d="M257.171 144.833C263.91 144.833 269.374 139.093 269.374 132.012C269.374 124.931 263.91 119.191 257.171 119.191C250.432 119.191 244.969 124.931 244.969 132.012C244.969 139.093 250.432 144.833 257.171 144.833Z" fill="#E6E6E6"/>
<path d="M224.461 144.833C231.201 144.833 236.664 139.093 236.664 132.012C236.664 124.931 231.201 119.191 224.461 119.191C217.722 119.191 212.259 124.931 212.259 132.012C212.259 139.093 217.722 144.833 224.461 144.833Z" fill="#E6E6E6"/>
<path d="M191.751 181.693C198.491 181.693 203.954 175.953 203.954 168.872C203.954 161.791 198.491 156.051 191.751 156.051C185.012 156.051 179.549 161.791 179.549 168.872C179.549 175.953 185.012 181.693 191.751 181.693Z" fill="#E6E6E6"/>
<path d="M256.922 218.49C263.661 218.49 269.124 212.75 269.124 205.669C269.124 198.588 263.661 192.848 256.922 192.848C250.182 192.848 244.719 198.588 244.719 205.669C244.719 212.75 250.182 218.49 256.922 218.49Z" fill="#E6E6E6"/>
<path d="M208.365 218.49C224.231 218.49 237.092 212.75 237.092 205.669C237.092 198.588 224.231 192.848 208.365 192.848C192.5 192.848 179.638 198.588 179.638 205.669C179.638 212.75 192.5 218.49 208.365 218.49Z" fill="#E6E6E6"/>
<path d="M257.171 181.693C263.91 181.693 269.374 175.953 269.374 168.872C269.374 161.791 263.91 156.051 257.171 156.051C250.432 156.051 244.969 161.791 244.969 168.872C244.969 175.953 250.432 181.693 257.171 181.693Z" fill="#E6E6E6"/>
<path d="M224.461 181.693C231.201 181.693 236.664 175.953 236.664 168.872C236.664 161.791 231.201 156.051 224.461 156.051C217.722 156.051 212.259 161.791 212.259 168.872C212.259 175.953 217.722 181.693 224.461 181.693Z" fill="#536DFE"/>
<path d="M226.859 14.9578H110.155C106.694 14.9578 103.88 17.9142 103.88 21.55V66.5939C103.88 70.2297 106.694 73.1862 110.155 73.1862H226.859C230.32 73.1862 233.134 70.2297 233.134 66.5939V21.55C233.134 17.9142 230.32 14.9578 226.859 14.9578Z" fill="white"/>
<path d="M226.859 14.9578H110.155C106.694 14.9578 103.88 17.9142 103.88 21.55V66.5939C103.88 70.2297 106.694 73.1862 110.155 73.1862H226.859C230.32 73.1862 233.134 70.2297 233.134 66.5939V21.55C233.134 17.9142 230.32 14.9578 226.859 14.9578ZM232.474 66.5939C232.474 69.8484 229.957 72.493 226.859 72.493H110.155C107.057 72.493 104.54 69.8484 104.54 66.5939V21.55C104.54 18.2955 107.057 15.651 110.155 15.651H226.859C229.957 15.651 232.474 18.2955 232.474 21.55V66.5939Z" fill="#3F3D56"/>
<path d="M220.368 42.2022H116.646C115.663 42.2022 114.866 43.0393 114.866 44.0719C114.866 45.1045 115.663 45.9416 116.646 45.9416H220.368C221.351 45.9416 222.148 45.1045 222.148 44.0719C222.148 43.0393 221.351 42.2022 220.368 42.2022Z" fill="#536DFE"/>
<path d="M34.5499 96.382L33.5104 102.886L42.7288 126.446L47.6747 123.775L42.8608 101.727L42.1689 93.3127L34.5499 96.382Z" fill="#A0616A"/>
<path d="M44.7258 59.7928C44.7258 59.7928 39.8994 57.3363 36.1542 65.6364C32.409 73.9365 32.8728 92.1407 32.8728 92.1407C32.8728 92.1407 31.5091 93.505 32.3748 94.4602C33.2405 95.4154 34.0475 96.9313 33.1644 98.6787C32.699 99.5997 31.6218 101.401 33.3858 101.913C35.1497 102.425 43.401 100.007 43.401 100.007C43.401 100.007 46.4865 98.5549 44.7334 97.5769C42.9803 96.5988 45.4493 90.6828 45.4493 90.6828L47.4894 73.5927L44.7258 59.7928Z" fill="#536DFE"/>
<path d="M48.5155 135.448C50.4528 134.823 51.211 131.537 50.2091 128.109C49.2072 124.681 46.8245 122.409 44.8872 123.034C42.95 123.659 42.1917 126.944 43.1937 130.372C44.1956 133.801 46.5783 136.073 48.5155 135.448Z" fill="#A0616A"/>
<path d="M94.2033 236.423L98.8232 235.12L96.2393 215.778L89.4208 217.701L94.2033 236.423Z" fill="#A0616A"/>
<path d="M110.004 231.851C110.213 232.065 110.498 232.865 110.574 233.161C110.806 234.071 110.293 235.006 109.427 235.25L95.1191 239.284C94.5284 239.451 93.9209 239.082 93.7624 238.462L93.6026 237.836C93.6026 237.836 92.4144 236.154 93.2795 233.425C93.2795 233.425 95.5542 234.73 97.5343 231.124L97.9444 229.38L104.855 232.19L108.163 231.701C108.886 231.594 109.481 231.315 110.004 231.851Z" fill="#2F2E41"/>
<path d="M48.918 236.312L53.7014 236.311L55.9769 216.926L48.9171 216.926L48.918 236.312Z" fill="#A0616A"/>
<path d="M65.3065 236.198C65.4555 236.461 65.534 237.312 65.534 237.618C65.534 238.56 64.8072 239.324 63.9106 239.324H49.097C48.4853 239.324 47.9894 238.803 47.9894 238.16V237.512C47.9894 237.512 47.2566 235.565 48.7653 233.164C48.7653 233.164 50.6405 235.044 53.4425 232.1L54.2687 230.527L60.2499 235.123L63.5651 235.552C64.2904 235.646 64.9334 235.537 65.3065 236.198Z" fill="#2F2E41"/>
<path d="M80.7525 120.84L93.3307 177.803L99.4029 223.83L89.8608 225.197L63.4032 146.815L57.3309 225.197L46.4876 226.109C46.4876 226.109 37.813 133.144 41.7166 121.751L80.7525 120.84Z" fill="#2F2E41"/>
<path d="M95.7243 53.4818L100.064 48.7172L105.048 23.7876L99.5282 23.0754L91.7114 44.1523L87.7811 51.5194L95.7243 53.4818Z" fill="#A0616A"/>
<path d="M67.7298 77.7296C67.7298 77.7296 71.7914 85.5982 79.3301 80.9464C86.8687 76.2946 94.8417 57.98 94.8417 57.98C94.8417 57.98 96.4337 53.3242 98.099 52.4008C98.9768 51.9141 101.235 51.3893 100.05 49.924C98.8655 48.4587 90.3443 45.2554 90.3443 45.2554C90.3443 45.2554 87.0156 44.6338 87.942 46.4782C88.8685 48.3225 85.8258 47.18 86.1329 49.132C86.4401 51.0839 83.6609 51.7566 83.6609 51.7566L67.7298 77.7296Z" fill="#536DFE"/>
<path d="M106.765 20.2661C107.77 16.8392 107.016 13.5526 105.079 12.9252C103.143 12.2977 100.757 14.567 99.7516 17.9939C98.7458 21.4207 99.5004 24.7073 101.437 25.3348C103.373 25.9622 105.759 23.6929 106.765 20.2661Z" fill="#A0616A"/>
<path d="M68.269 50.4683H56.3937L55.9131 54.4022C55.9131 54.4022 40.9362 58.7295 41.3106 61.0899C41.685 63.4503 43.9316 102.79 43.9316 102.79L42.0595 122.459C42.0595 122.459 75.7575 137.408 80.9994 119.706L78.3785 99.2491C78.3785 99.2491 84.7436 64.2371 83.2459 62.6635C81.7483 61.0899 69.3923 54.7956 69.3923 54.7956L68.269 50.4683Z" fill="#536DFE"/>
<path d="M61.3711 50.5172C67.2579 50.5172 72.0301 45.5032 72.0301 39.3182C72.0301 33.1331 67.2579 28.1191 61.3711 28.1191C55.4842 28.1191 50.712 33.1331 50.712 39.3182C50.712 45.5032 55.4842 50.5172 61.3711 50.5172Z" fill="#A0616A"/>
<path d="M69.265 34.7115C70.6269 34.5905 71.9887 34.4695 73.3506 34.3486C72.8825 34.123 72.395 33.8815 72.083 33.4509C71.7712 33.0203 71.7067 32.3399 72.0834 31.971C72.5237 31.5399 73.2528 31.7683 73.7341 32.1481C73.4691 30.6946 72.6434 29.3628 71.485 28.5208C70.0699 27.4923 66.5693 28.7187 64.8634 28.4826C62.8951 28.2101 62.6494 26.447 60.6811 26.1745C59.9392 26.0719 59.1043 25.9944 58.5209 26.4868C57.8738 27.0329 57.8012 28.0655 57.2304 28.6985C56.4153 29.6022 55.0183 29.3356 53.8583 29.5898C52.2154 29.9501 50.9769 31.4636 50.4049 33.1214C49.8329 34.7792 49.8118 36.5823 49.7972 38.3457C49.7809 40.3219 49.775 42.6096 51.1354 43.9745C51.9641 44.8061 54.2217 47.659 54.4657 48.8355C54.6391 49.671 61.7028 50.6886 63.2338 50.6423L68.4519 48.8355C68.9647 46.4629 68.1164 41.7693 66.8972 39.7009C67.2987 40.2581 69.1555 41.9356 69.4394 41.3035C69.7232 40.6714 69.5945 38.6904 69.9478 38.0983C70.3939 37.351 68.4285 34.7857 69.265 34.7115Z" fill="#2F2E41"/>
</g>
<defs>
<clipPath id="clip0_57_678">
<rect width="287" height="240" fill="white"/>
</clipPath>
</defs>
</svg>
